<svg width="540" height="446" viewBox="0 0 540 446" fill="none" xmlns="http://www.w3.org/2000/svg">
<path d="M81.1364 405.46C81.1364 405.46 -65.977 104.877 203.994 125.224C319.624 133.934 298.037 186.801 349.106 236.274C382.208 268.337 445.872 242.107 469.731 270.125C493.59 298.143 465.552 378.034 455.716 405.46H81.1364Z" fill="#E5F0F8"/>
<path d="M444.298 404.378C444.298 404.378 453.164 369.005 475.269 358.089C497.374 347.173 520.966 362.118 514.97 377.834C509.805 391.386 488.563 374.723 472.028 381.278C455.493 387.833 452.919 404.378 452.919 404.378H444.298Z" fill="#40A87B"/>
<path d="M510.702 368.41C510.702 368.41 486.979 354.889 469.38 367.397C451.782 379.905 446.208 404.386 446.208 404.386" stroke="#6ADB6A" stroke-width="4.92" stroke-miterlimit="10"/>
<path d="M506.876 362.086L501.356 364.492" stroke="#6ADB6A" stroke-width="4.92" stroke-miterlimit="10"/>
<path d="M498.903 356.931L487.91 362.086" stroke="#6ADB6A" stroke-width="4.92" stroke-miterlimit="10"/>
<path d="M482.387 356.931L476.666 363.686" stroke="#6ADB6A" stroke-width="4.92" stroke-miterlimit="10"/>
<path d="M471.544 361.458L468.973 367.681" stroke="#6ADB6A" stroke-width="4.92" stroke-miterlimit="10"/>
<path d="M504.115 377.018L495.642 363.001" stroke="#6ADB6A" stroke-width="4.92" stroke-miterlimit="10"/>
<path d="M489.146 375.009L481.374 362.529" stroke="#6ADB6A" stroke-width="4.92" stroke-miterlimit="10"/>
<path d="M475.945 373.097L464.262 371.645" stroke="#6ADB6A" stroke-width="4.92" stroke-miterlimit="10"/>
<path d="M462.344 380.176L455.647 382.374" stroke="#6ADB6A" stroke-width="4.92" stroke-miterlimit="10"/>
<path d="M436.692 404.491C436.692 404.491 430.435 285.916 487.066 301.187C543.697 316.458 442.89 380.367 442.975 404.473L436.692 404.491Z" fill="#6ADB6A"/>
<path d="M438.981 404.492C438.981 404.492 440.957 342.545 481.315 311.923" stroke="#40A87B" stroke-width="4.92" stroke-miterlimit="10"/>
<path d="M463.62 329.865L464.628 308.505" stroke="#40A87B" stroke-width="4.92" stroke-miterlimit="10"/>
<path d="M495.292 321.016L468.007 324.573" stroke="#40A87B" stroke-width="4.92" stroke-miterlimit="10"/>
<path d="M484.682 339.245L455.831 342.608" stroke="#40A87B" stroke-width="4.92" stroke-miterlimit="10"/>
<path d="M470.255 357.312L447.974 360.461" stroke="#40A87B" stroke-width="4.92" stroke-miterlimit="10"/>
<path d="M445.835 340.433L450.944 352.841" stroke="#40A87B" stroke-width="4.92" stroke-miterlimit="10"/>
<path d="M454.229 320.292L458.582 337.763" stroke="#40A87B" stroke-width="4.92" stroke-miterlimit="10"/>
<path d="M441.069 361.146L445.136 369.257" stroke="#40A87B" stroke-width="4.92" stroke-miterlimit="10"/>
<path d="M458.582 374.062L442.614 379.095" stroke="#40A87B" stroke-width="4.92" stroke-miterlimit="10"/>
<path d="M82.4591 404.396C82.4591 404.396 75.2319 375.566 57.2144 366.668C39.1969 357.77 19.9681 369.952 24.8518 382.761C29.0609 393.807 46.3755 380.225 59.8456 385.567C73.3157 390.908 75.4425 404.405 75.4425 404.405L82.4591 404.396Z" fill="#40A87B"/>
<path d="M28.3337 375.08C28.3337 375.08 47.6699 364.059 62.017 374.248C76.3642 384.437 80.9035 404.397 80.9035 404.397" stroke="#6ADB6A" stroke-width="4.01" stroke-miterlimit="10"/>
<path d="M31.4531 369.925L35.9519 371.888" stroke="#6ADB6A" stroke-width="4.01" stroke-miterlimit="10"/>
<path d="M37.9512 365.724L46.9103 369.925" stroke="#6ADB6A" stroke-width="4.01" stroke-miterlimit="10"/>
<path d="M51.4131 365.724L56.076 371.229" stroke="#6ADB6A" stroke-width="4.01" stroke-miterlimit="10"/>
<path d="M60.2507 369.414L62.3452 374.484" stroke="#6ADB6A" stroke-width="4.01" stroke-miterlimit="10"/>
<path d="M33.7015 382.096L40.6087 370.67" stroke="#6ADB6A" stroke-width="4.01" stroke-miterlimit="10"/>
<path d="M45.9036 380.46L52.2376 370.287" stroke="#6ADB6A" stroke-width="4.01" stroke-miterlimit="10"/>
<path d="M56.6634 378.9L66.1857 377.717" stroke="#6ADB6A" stroke-width="4.01" stroke-miterlimit="10"/>
<path d="M67.7494 384.669L73.2083 386.462" stroke="#6ADB6A" stroke-width="4.01" stroke-miterlimit="10"/>
<path d="M88.6574 404.491C88.6574 404.491 93.7578 307.849 47.599 320.305C1.44019 332.76 83.6056 384.831 83.5367 404.491H88.6574Z" fill="#6ADB6A"/>
<path d="M86.7939 404.491C86.7939 404.491 85.1734 353.999 52.2781 329.032" stroke="#40A87B" stroke-width="4.01" stroke-miterlimit="10"/>
<path d="M66.7083 343.663L65.8879 326.251" stroke="#40A87B" stroke-width="4.01" stroke-miterlimit="10"/>
<path d="M40.8943 336.448L63.1331 339.347" stroke="#40A87B" stroke-width="4.01" stroke-miterlimit="10"/>
<path d="M49.5435 351.308L73.0584 354.048" stroke="#40A87B" stroke-width="4.01" stroke-miterlimit="10"/>
<path d="M61.3 366.033L79.4633 368.602" stroke="#40A87B" stroke-width="4.01" stroke-miterlimit="10"/>
<path d="M81.2053 352.274L77.0427 362.39" stroke="#40A87B" stroke-width="4.01" stroke-miterlimit="10"/>
<path d="M74.3649 335.86L70.8161 350.098" stroke="#40A87B" stroke-width="4.01" stroke-miterlimit="10"/>
<path d="M85.0903 369.159L81.7745 375.771" stroke="#40A87B" stroke-width="4.01" stroke-miterlimit="10"/>
<path d="M70.8161 379.687L83.8304 383.79" stroke="#40A87B" stroke-width="4.01" stroke-miterlimit="10"/>
<path d="M469.648 403.454H59.7119C57.2553 403.454 55.2638 405.446 55.2638 407.902V408.313C55.2638 410.77 57.2553 412.762 59.7119 412.762H469.648C472.104 412.762 474.096 410.77 474.096 408.313V407.902C474.096 405.446 472.104 403.454 469.648 403.454Z" fill="#0775EF"/>
<path d="M444.717 191.522H440.872V202.023H444.717V191.522Z" fill="#E5F0F8"/>
<path d="M450.806 186.12H446.961V202.021H450.806V186.12Z" fill="#E5F0F8"/>
<path d="M456.897 178.081H453.052V202.023H456.897V178.081Z" fill="#E5F0F8"/>
<path d="M462.986 183.041H459.141V202.023H462.986V183.041Z" fill="#E5F0F8"/>
<path d="M469.077 185.134H465.232V202.023H469.077V185.134Z" fill="#E5F0F8"/>
<path d="M475.165 181.021H471.321V202.023H475.165V181.021Z" fill="#E5F0F8"/>
<path d="M481.256 176.349H477.412V202.023H481.256V176.349Z" fill="#E5F0F8"/>
<path d="M334.599 124.891H250.564C249.569 124.891 248.761 125.837 248.761 127.001V175.338H336.397V127.001C336.401 125.837 335.595 124.891 334.599 124.891Z" fill="#BBDBF3"/>
<path d="M335.423 130.706H249.745V174.104H335.423V130.706Z" fill="white"/>
<path d="M255.784 153.474C255.784 153.474 258.97 146.6 265.038 147.884C271.107 149.168 266.898 161.992 273.651 163.264C280.404 164.536 284.125 144.712 299.396 147.724C314.667 150.736 328.767 141.141 328.767 141.141V171.348H255.784V153.474Z" fill="#F9ECB8"/>
<path d="M255.784 165.416C260.339 165.025 260.926 152.623 268.269 151.825C275.612 151.027 274.631 162.285 278.841 163.751C283.05 165.218 284.703 160.129 292.637 160.522C300.571 160.915 301.347 166.871 305.955 166.871C310.563 166.871 318.898 162.676 328.773 163.458V171.357H255.784V165.416Z" fill="#E7888B"/>
<path d="M255.676 166.871H328.773" stroke="#BBDBF3" stroke-width="1.61" stroke-linecap="round" stroke-linejoin="round" stroke-dasharray="9.6 9.6"/>
<path d="M255.676 157.377H328.773" stroke="#BBDBF3" stroke-width="1.61" stroke-linecap="round" stroke-linejoin="round" stroke-dasharray="9.6 9.6"/>
<path d="M255.676 152.629H328.773" stroke="#BBDBF3" stroke-width="1.61" stroke-linecap="round" stroke-linejoin="round" stroke-dasharray="9.6 9.6"/>
<path d="M328.773 162.123H255.676" stroke="#BBDBF3" stroke-width="1.61" stroke-linecap="round" stroke-linejoin="round" stroke-dasharray="9.6 9.6"/>
<path d="M255.676 147.884H328.773" stroke="#BBDBF3" stroke-width="1.61" stroke-linecap="round" stroke-linejoin="round" stroke-dasharray="9.6 9.6"/>
<path d="M255.676 143.136H328.773" stroke="#BBDBF3" stroke-width="1.61" stroke-linecap="round" stroke-linejoin="round" stroke-dasharray="9.6 9.6"/>
<path d="M255.676 138.39H328.773" stroke="#BBDBF3" stroke-width="1.61" stroke-linecap="round" stroke-linejoin="round" stroke-dasharray="9.6 9.6"/>
<path d="M255.784 133.463V171.349H329.49" stroke="#BBDBF3" stroke-width="3.21" stroke-linecap="round" stroke-linejoin="round"/>
<path d="M76.9394 384.933H448.007C448.629 384.933 449.226 385.18 449.667 385.62C450.107 386.06 450.354 386.658 450.354 387.28V387.685C450.354 391.866 448.693 395.875 445.737 398.832C442.781 401.788 438.772 403.448 434.591 403.448H90.3548C86.1742 403.448 82.1648 401.788 79.2087 398.832C76.2525 395.875 74.5918 391.866 74.5918 387.685V387.28C74.5918 386.658 74.8391 386.06 75.2794 385.62C75.7197 385.18 76.3168 384.933 76.9394 384.933Z" fill="#586773"/>
<path d="M440.107 215.204V384.933H84.5677V215.204C84.5677 196.017 99.5084 180.463 117.943 180.463H406.735C425.168 180.463 440.107 196.017 440.107 215.204Z" fill="#586773"/>
<path d="M427.631 215.203V384.932H97.0433V215.203C97.0433 203.213 106.424 193.45 117.943 193.45H406.735C418.251 193.45 427.631 203.213 427.631 215.203Z" fill="#E5F0F8"/>
<path d="M415.154 215.197V222.173H109.523V215.197C109.523 210.378 113.303 206.433 117.945 206.433H406.735C411.372 206.433 415.154 210.378 415.154 215.197Z" fill="#BBDBF3"/>
<path d="M415.154 222.173H109.523V384.934H415.154V222.173Z" fill="white"/>
<path d="M260.517 228.588H113.967V239.392H260.517V228.588Z" fill="#BBDBF3"/>
<path d="M260.517 239.393H113.967V277.953H260.517V239.393Z" fill="#E5F0F8"/>
<path d="M166.743 232.767H119.197V235.173H166.743V232.767Z" fill="white"/>
<path d="M201.838 232.767H169.642V235.173H201.838V232.767Z" fill="white"/>
<path d="M255.263 243.237H119.221V274.109H255.263V243.237Z" stroke="#BBDBF3" stroke-width="3.19" stroke-miterlimit="10"/>
<path d="M131.026 243.237H119.221V274.109H131.026V243.237Z" stroke="#BBDBF3" stroke-width="3.19" stroke-miterlimit="10"/>
<path d="M199.258 243.237H131.024V274.109H199.258V243.237Z" stroke="#BBDBF3" stroke-width="3.19" stroke-miterlimit="10"/>
<path d="M255.263 243.237H244.495V274.109H255.263V243.237Z" stroke="#BBDBF3" stroke-width="3.19" stroke-miterlimit="10"/>
<path d="M244.497 243.237H233.729V274.109H244.497V243.237Z" stroke="#BBDBF3" stroke-width="3.19" stroke-miterlimit="10"/>
<path d="M233.729 243.237H220.275V274.109H233.729V243.237Z" stroke="#BBDBF3" stroke-width="3.19" stroke-miterlimit="10"/>
<path d="M220.275 243.237H199.258V274.109H220.275V243.237Z" stroke="#BBDBF3" stroke-width="3.19" stroke-miterlimit="10"/>
<path d="M255.263 252.445H119.221V259.666H255.263V252.445Z" stroke="#BBDBF3" stroke-width="3.19" stroke-miterlimit="10"/>
<path d="M255.263 259.667H119.221V266.888H255.263V259.667Z" stroke="#BBDBF3" stroke-width="3.19" stroke-miterlimit="10"/>
<path d="M255.263 266.888H119.221V274.109H255.263V266.888Z" stroke="#BBDBF3" stroke-width="3.19" stroke-miterlimit="10"/>
<path d="M260.517 281.258H113.967V287.533H260.517V281.258Z" fill="#BBDBF3"/>
<path d="M260.517 287.532H113.967V309.927H260.517V287.532Z" fill="#E5F0F8"/>
<path d="M166.743 283.686H119.197V285.083H166.743V283.686Z" fill="white"/>
<path d="M201.838 283.686H169.642V285.083H201.838V283.686Z" fill="white"/>
<path d="M255.263 289.765H119.221V307.693H255.263V289.765Z" stroke="#BBDBF3" stroke-width="2.43" stroke-miterlimit="10"/>
<path d="M131.026 289.765H119.221V307.693H131.026V289.765Z" stroke="#BBDBF3" stroke-width="2.43" stroke-miterlimit="10"/>
<path d="M199.258 289.765H131.024V307.693H199.258V289.765Z" stroke="#BBDBF3" stroke-width="2.43" stroke-miterlimit="10"/>
<path d="M255.263 289.765H244.495V307.693H255.263V289.765Z" stroke="#BBDBF3" stroke-width="2.43" stroke-miterlimit="10"/>
<path d="M244.497 289.765H233.729V307.693H244.497V289.765Z" stroke="#BBDBF3" stroke-width="2.43" stroke-miterlimit="10"/>
<path d="M233.729 289.765H220.275V307.693H233.729V289.765Z" stroke="#BBDBF3" stroke-width="2.43" stroke-miterlimit="10"/>
<path d="M220.275 289.765H199.258V307.693H220.275V289.765Z" stroke="#BBDBF3" stroke-width="2.43" stroke-miterlimit="10"/>
<path d="M255.263 295.112H119.221V299.305H255.263V295.112Z" stroke="#BBDBF3" stroke-width="2.43" stroke-miterlimit="10"/>
<path d="M255.263 299.308H119.221V303.501H255.263V299.308Z" stroke="#BBDBF3" stroke-width="2.43" stroke-miterlimit="10"/>
<path d="M255.263 303.5H119.221V307.693H255.263V303.5Z" stroke="#BBDBF3" stroke-width="2.43" stroke-miterlimit="10"/>
<path d="M406.735 228.588H268.569C268.18 228.588 267.795 228.664 267.435 228.813C267.076 228.962 266.749 229.18 266.474 229.455C266.199 229.73 265.981 230.056 265.832 230.416C265.684 230.775 265.607 231.16 265.608 231.549V299.406H409.691V231.549C409.691 230.765 409.38 230.013 408.826 229.457C408.271 228.902 407.52 228.59 406.735 228.588Z" fill="#BBDBF3"/>
<path d="M408.08 236.751H267.216V297.684H408.08V236.751Z" fill="white"/>
<path d="M317.46 281.258H306.935V292.172H317.46V281.258Z" fill="white" stroke="#BBDBF3" stroke-width="4.14" stroke-miterlimit="10"/>
<path d="M306.933 281.258H280.856V292.172H306.933V281.258Z" fill="white" stroke="#BBDBF3" stroke-width="4.14" stroke-miterlimit="10"/>
<path d="M280.856 281.258H271.378V292.172H280.856V281.258Z" fill="white" stroke="#BBDBF3" stroke-width="4.14" stroke-miterlimit="10"/>
<path d="M326.039 281.258H317.458V292.172H326.039V281.258Z" fill="white" stroke="#BBDBF3" stroke-width="4.14" stroke-miterlimit="10"/>
<path d="M335.291 281.258H326.039V292.172H335.291V281.258Z" fill="white" stroke="#BBDBF3" stroke-width="4.14" stroke-miterlimit="10"/>
<path d="M317.46 270.346H306.935V281.26H317.46V270.346Z" fill="white" stroke="#BBDBF3" stroke-width="4.14" stroke-miterlimit="10"/>
<path d="M306.933 270.346H280.856V281.26H306.933V270.346Z" fill="white" stroke="#BBDBF3" stroke-width="4.14" stroke-miterlimit="10"/>
<path d="M280.856 270.346H271.378V281.26H280.856V270.346Z" fill="white" stroke="#BBDBF3" stroke-width="4.14" stroke-miterlimit="10"/>
<path d="M326.039 270.346H317.458V281.26H326.039V270.346Z" fill="white" stroke="#BBDBF3" stroke-width="4.14" stroke-miterlimit="10"/>
<path d="M335.291 270.346H326.039V281.26H335.291V270.346Z" fill="white" stroke="#BBDBF3" stroke-width="4.14" stroke-miterlimit="10"/>
<path d="M303.923 274.762H283.866V276.842H303.923V274.762Z" fill="#E5F0F8"/>
<path d="M303.923 285.673H283.866V287.753H303.923V285.673Z" fill="#E5F0F8"/>
<path d="M326.594 241.759H271.378V244.641H326.594V241.759Z" fill="#E5F0F8"/>
<path d="M298.987 248.974H271.378V251.856H298.987V248.974Z" fill="#E5F0F8"/>
<path d="M335.553 248.974H323.551V251.856H335.553V248.974Z" fill="#E5F0F8"/>
<path d="M309.998 254.523H271.378V257.406H309.998V254.523Z" fill="#E5F0F8"/>
<path d="M335.553 254.523H320.351V257.406H335.553V254.523Z" fill="#E5F0F8"/>
<path d="M305.045 260.074H271.378V262.957H305.045V260.074Z" fill="#E5F0F8"/>
<path d="M335.553 260.074H323.551V262.957H335.553V260.074Z" fill="#E5F0F8"/>
<path d="M338.494 280.08H403.495" stroke="#ADD0FA" stroke-width="1.43" stroke-linecap="round" stroke-linejoin="round" stroke-dasharray="8.54 8.54"/>
<path d="M338.494 275.859H403.495" stroke="#ADD0FA" stroke-width="1.43" stroke-linecap="round" stroke-linejoin="round" stroke-dasharray="8.54 8.54"/>
<path d="M338.494 271.638H403.495" stroke="#ADD0FA" stroke-width="1.43" stroke-linecap="round" stroke-linejoin="round" stroke-dasharray="8.54 8.54"/>
<path d="M338.494 267.417H403.495" stroke="#ADD0FA" stroke-width="1.43" stroke-linecap="round" stroke-linejoin="round" stroke-dasharray="8.54 8.54"/>
<path d="M338.494 263.197H403.495" stroke="#ADD0FA" stroke-width="1.43" stroke-linecap="round" stroke-linejoin="round" stroke-dasharray="8.54 8.54"/>
<path d="M338.494 258.976H403.495" stroke="#ADD0FA" stroke-width="1.43" stroke-linecap="round" stroke-linejoin="round" stroke-dasharray="8.54 8.54"/>
<path d="M338.494 254.755H403.495" stroke="#ADD0FA" stroke-width="1.43" stroke-linecap="round" stroke-linejoin="round" stroke-dasharray="8.54 8.54"/>
<path d="M338.589 250.373V284.062H404.133" stroke="#BBDBF3" stroke-width="2.86" stroke-linecap="round" stroke-linejoin="round"/>
<path d="M343.163 277.716L355.6 259.616L363.769 271.196H376.125L388.066 255.591L403.494 278.65" stroke="#F9E181" stroke-width="2.86" stroke-linecap="round" stroke-linejoin="round"/>
<path d="M355.6 261.346C356.555 261.346 357.33 260.572 357.33 259.617C357.33 258.661 356.555 257.887 355.6 257.887C354.644 257.887 353.87 258.661 353.87 259.617C353.87 260.572 354.644 261.346 355.6 261.346Z" fill="white" stroke="#F74242" stroke-width="2.86" stroke-linecap="round" stroke-linejoin="round"/>
<path d="M363.702 272.989C364.657 272.989 365.432 272.215 365.432 271.259C365.432 270.304 364.657 269.529 363.702 269.529C362.747 269.529 361.972 270.304 361.972 271.259C361.972 272.215 362.747 272.989 363.702 272.989Z" fill="white" stroke="#F74242" stroke-width="2.86" stroke-linecap="round" stroke-linejoin="round"/>
<path d="M375.957 272.989C376.912 272.989 377.687 272.215 377.687 271.259C377.687 270.304 376.912 269.529 375.957 269.529C375.001 269.529 374.227 270.304 374.227 271.259C374.227 272.215 375.001 272.989 375.957 272.989Z" fill="white" stroke="#F74242" stroke-width="2.86" stroke-linecap="round" stroke-linejoin="round"/>
<path d="M388.212 258.094C389.167 258.094 389.941 257.32 389.941 256.365C389.941 255.409 389.167 254.635 388.212 254.635C387.256 254.635 386.482 255.409 386.482 256.365C386.482 257.32 387.256 258.094 388.212 258.094Z" fill="white" stroke="#F74242" stroke-width="2.86" stroke-linecap="round" stroke-linejoin="round"/>
<path d="M325.635 350.649C325.668 354.558 324.926 358.435 323.452 362.055C321.979 365.676 319.803 368.969 317.05 371.745C314.298 374.52 311.023 376.723 307.414 378.227C303.806 379.73 299.936 380.504 296.027 380.504C292.118 380.504 288.247 379.73 284.639 378.227C281.031 376.723 277.756 374.52 275.003 371.745C272.25 368.969 270.074 365.676 268.601 362.055C267.127 358.435 266.385 354.558 266.418 350.649H272.225C272.307 356.908 274.85 362.882 279.305 367.279C283.759 371.676 289.767 374.141 296.026 374.141C302.285 374.141 308.292 371.676 312.746 367.279C317.201 362.882 319.744 356.908 319.826 350.649C319.826 337.54 309.149 326.865 296.026 326.865V321.058C303.876 321.056 311.406 324.173 316.958 329.722C322.511 335.271 325.632 342.799 325.635 350.649Z" fill="#BBDBF3"/>
<path d="M296.028 321.058V326.865C282.902 326.865 272.225 337.54 272.225 350.649H266.418C266.421 342.799 269.542 335.271 275.095 329.722C280.648 324.173 288.177 321.056 296.028 321.058Z" fill="#F9E181"/>
<path d="M296.028 326.865V333.347C291.441 333.353 287.045 335.177 283.802 338.42C280.558 341.663 278.734 346.059 278.727 350.645H272.225C272.225 337.54 282.902 326.865 296.028 326.865Z" fill="#F9ECB8"/>
<path d="M319.838 350.649C319.757 356.908 317.213 362.882 312.759 367.279C308.304 371.676 302.297 374.141 296.038 374.141C289.779 374.141 283.772 371.676 279.317 367.279C274.862 362.882 272.319 356.908 272.237 350.649H278.719C278.719 354.071 279.733 357.416 281.634 360.262C283.534 363.107 286.236 365.325 289.398 366.634C292.559 367.944 296.037 368.287 299.393 367.62C302.75 366.952 305.832 365.305 308.252 362.885C310.672 360.466 312.32 357.383 312.987 354.027C313.655 350.671 313.313 347.193 312.003 344.031C310.694 340.87 308.476 338.168 305.631 336.267C302.786 334.366 299.441 333.351 296.02 333.351V326.869C309.151 326.865 319.838 337.54 319.838 350.649Z" fill="#E5F0F8"/>
<path d="M397.959 350.649C397.963 355.712 396.669 360.69 394.201 365.11C391.733 369.53 388.173 373.243 383.861 375.895C379.548 378.547 374.628 380.05 369.57 380.258C364.513 380.467 359.485 379.376 354.969 377.088C350.453 374.801 346.599 371.394 343.775 367.193C340.951 362.991 339.251 358.136 338.838 353.091C338.425 348.045 339.312 342.978 341.415 338.373C343.518 333.768 346.766 329.78 350.85 326.788L354.293 331.471C351.013 333.876 348.404 337.081 346.715 340.781C345.026 344.48 344.314 348.551 344.646 352.605C344.978 356.658 346.344 360.559 348.613 363.934C350.882 367.31 353.979 370.047 357.607 371.885C361.235 373.723 365.274 374.6 369.338 374.433C373.401 374.266 377.354 373.059 380.819 370.929C384.284 368.799 387.145 365.817 389.129 362.266C391.113 358.716 392.153 354.716 392.151 350.649C392.151 337.54 381.474 326.865 368.351 326.865V321.058C376.201 321.057 383.73 324.173 389.282 329.723C394.834 335.272 397.955 342.799 397.959 350.649Z" fill="#BBDBF3"/>
<path d="M392.151 350.649C392.156 354.719 391.116 358.722 389.133 362.276C387.149 365.83 384.287 368.815 380.821 370.948C377.355 373.081 373.399 374.289 369.333 374.457C365.267 374.625 361.225 373.748 357.594 371.909C353.963 370.07 350.865 367.331 348.594 363.953C346.324 360.576 344.957 356.672 344.626 352.616C344.294 348.56 345.007 344.486 346.698 340.784C348.39 337.082 351.002 333.876 354.285 331.471L358.122 336.693C354.8 339.125 352.454 342.662 351.505 346.669C350.557 350.675 351.068 354.889 352.947 358.552C354.826 362.216 357.949 365.089 361.756 366.657C365.564 368.224 369.805 368.383 373.718 367.104C377.632 365.826 380.962 363.193 383.109 359.68C385.256 356.167 386.081 352.004 385.434 347.938C384.787 343.872 382.712 340.169 379.581 337.496C376.45 334.822 372.468 333.353 368.351 333.351V326.869C381.474 326.865 392.151 337.54 392.151 350.649Z" fill="#E5F0F8"/>
<path d="M368.351 321.058V326.865C363.291 326.859 358.362 328.474 354.285 331.471L350.842 326.788C355.914 323.053 362.051 321.044 368.351 321.058Z" fill="#F9E181"/>
<path d="M368.351 326.865V333.347C364.672 333.345 361.089 334.516 358.122 336.689L354.285 331.467C358.362 328.471 363.291 326.859 368.351 326.865Z" fill="#F9ECB8"/>
<path d="M315.773 313.999H276.282V316.296H315.773V313.999Z" fill="#E5F0F8"/>
<path d="M388.096 313.999H348.605V316.296H388.096V313.999Z" fill="#E5F0F8"/>
<path d="M185.934 350.649C185.966 354.558 185.224 358.435 183.75 362.055C182.277 365.676 180.101 368.969 177.348 371.745C174.596 374.52 171.321 376.723 167.712 378.227C164.104 379.73 160.234 380.504 156.325 380.504C152.416 380.504 148.545 379.73 144.937 378.227C141.329 376.723 138.054 374.52 135.301 371.745C132.548 368.969 130.373 365.676 128.899 362.055C127.426 358.435 126.684 354.558 126.716 350.649H132.523C132.605 356.908 135.148 362.882 139.603 367.279C144.058 371.676 150.065 374.141 156.324 374.141C162.583 374.141 168.59 371.676 173.045 367.279C177.499 362.882 180.043 356.908 180.124 350.649C180.124 337.54 169.447 326.865 156.324 326.865V321.058C164.174 321.056 171.704 324.173 177.256 329.722C182.809 335.271 185.93 342.799 185.934 350.649Z" fill="#BBDBF3"/>
<path d="M156.326 321.058V326.865C143.2 326.865 132.523 337.54 132.523 350.649H126.716C126.719 342.799 129.84 335.271 135.393 329.722C140.946 324.173 148.475 321.056 156.326 321.058Z" fill="#F9E181"/>
<path d="M156.326 326.865V333.347C151.74 333.353 147.343 335.177 144.1 338.42C140.857 341.663 139.032 346.059 139.025 350.645H132.523C132.523 337.54 143.208 326.865 156.326 326.865Z" fill="#F9ECB8"/>
<path d="M180.126 350.649C180.045 356.908 177.501 362.882 173.047 367.279C168.592 371.676 162.585 374.141 156.326 374.141C150.067 374.141 144.06 371.676 139.605 367.279C135.15 362.882 132.607 356.908 132.525 350.649H139.027C139.027 354.071 140.041 357.416 141.942 360.262C143.843 363.107 146.545 365.325 149.706 366.634C152.867 367.944 156.346 368.287 159.702 367.62C163.058 366.952 166.141 365.305 168.56 362.885C170.98 360.466 172.628 357.383 173.296 354.027C173.963 350.671 173.621 347.193 172.311 344.031C171.002 340.87 168.785 338.168 165.94 336.267C163.095 334.366 159.75 333.351 156.328 333.351V326.869C169.449 326.865 180.126 337.54 180.126 350.649Z" fill="#E5F0F8"/>
<path d="M258.261 350.649C258.265 355.712 256.971 360.69 254.503 365.11C252.035 369.53 248.475 373.243 244.163 375.895C239.851 378.547 234.931 380.05 229.873 380.258C224.815 380.467 219.788 379.376 215.272 377.088C210.755 374.801 206.901 371.394 204.077 367.193C201.253 362.991 199.553 358.136 199.14 353.091C198.727 348.045 199.614 342.978 201.717 338.373C203.82 333.768 207.068 329.78 211.152 326.788L214.595 331.471C211.317 333.876 208.709 337.082 207.022 340.782C205.334 344.482 204.623 348.552 204.957 352.605C205.29 356.658 206.657 360.557 208.926 363.932C211.195 367.306 214.291 370.043 217.919 371.88C221.547 373.717 225.585 374.594 229.648 374.427C233.711 374.26 237.663 373.054 241.128 370.925C244.592 368.795 247.453 365.813 249.437 362.264C251.421 358.714 252.462 354.716 252.462 350.649C252.462 337.54 241.785 326.865 228.661 326.865V321.058C236.51 321.059 244.037 324.176 249.587 329.726C255.138 335.275 258.258 342.801 258.261 350.649Z" fill="#BBDBF3"/>
<path d="M252.449 350.649C252.454 354.719 251.414 358.722 249.431 362.276C247.447 365.83 244.586 368.815 241.119 370.948C237.653 373.081 233.697 374.289 229.631 374.457C225.565 374.625 221.523 373.748 217.892 371.909C214.262 370.07 211.163 367.331 208.892 363.953C206.622 360.576 205.256 356.672 204.924 352.616C204.592 348.56 205.305 344.486 206.997 340.784C208.688 337.082 211.3 333.876 214.583 331.471L218.42 336.693C215.098 339.125 212.752 342.662 211.803 346.669C210.855 350.675 211.366 354.889 213.245 358.552C215.124 362.216 218.247 365.089 222.054 366.657C225.862 368.224 230.103 368.383 234.017 367.104C237.93 365.826 241.26 363.193 243.407 359.68C245.554 356.167 246.379 352.004 245.732 347.938C245.085 343.872 243.01 340.169 239.879 337.496C236.748 334.822 232.766 333.353 228.649 333.351V326.869C241.773 326.865 252.449 337.54 252.449 350.649Z" fill="#E5F0F8"/>
<path d="M228.649 321.058V326.865C223.589 326.859 218.66 328.474 214.583 331.471L211.14 326.788C216.212 323.053 222.35 321.044 228.649 321.058Z" fill="#F9E181"/>
<path d="M228.649 326.865V333.347C224.971 333.345 221.387 334.516 218.42 336.689L214.583 331.467C218.66 328.471 223.589 326.859 228.649 326.865Z" fill="#F9ECB8"/>
<path d="M176.071 313.999H136.58V316.296H176.071V313.999Z" fill="#E5F0F8"/>
<path d="M248.394 313.999H208.904V316.296H248.394V313.999Z" fill="#E5F0F8"/>
<path d="M356.821 140.13H372.187C372.187 140.13 373.072 137.306 371.006 136.208C368.94 135.11 368.642 133.684 369.53 132.184C370.417 130.683 370.064 128.817 368.545 127.583C367.026 126.35 366.799 123.447 362.987 124.438C362.987 124.438 358.235 125.38 357.923 128.124C357.611 130.869 357.619 130.632 356.339 132.305C355.059 133.978 356.732 136.887 356.339 137.944C356.031 138.707 355.652 139.438 355.207 140.13H356.821Z" fill="#322A28"/>
<path d="M344.724 165.2C345.683 165.782 346.832 165.962 347.923 165.701C349.014 165.44 349.957 164.759 350.548 163.806L359.706 148.888C360.287 147.93 360.467 146.781 360.206 145.691C359.945 144.601 359.264 143.658 358.312 143.067C357.354 142.484 356.204 142.304 355.114 142.565C354.023 142.826 353.08 143.507 352.489 144.46L343.335 159.376C342.752 160.334 342.571 161.484 342.832 162.574C343.092 163.665 343.772 164.608 344.724 165.2Z" fill="#F74242"/>
<path d="M372.74 170.464C372.74 170.464 373.974 171.866 374.464 173.008C374.954 174.151 369.096 173.523 369.096 173.523L369.734 168.029L372.74 170.464Z" fill="#088CFF"/>
<path d="M333.663 194.53C334.77 196.064 336.44 197.097 338.306 197.405C340.173 197.712 342.086 197.269 343.627 196.171L365.908 180.185C367.442 179.078 368.476 177.408 368.784 175.541C369.091 173.674 368.647 171.762 367.549 170.221C366.442 168.687 364.773 167.654 362.906 167.346C361.04 167.039 359.127 167.482 357.587 168.58L335.306 184.566C333.771 185.673 332.737 187.342 332.429 189.209C332.122 191.076 332.565 192.989 333.663 194.53Z" fill="#0775EF"/>
<path d="M340.094 196.53C341.201 198.064 342.87 199.098 344.737 199.405C346.604 199.713 348.517 199.269 350.058 198.17L372.339 182.185C373.873 181.078 374.907 179.409 375.215 177.542C375.522 175.675 375.078 173.763 373.98 172.223C372.873 170.688 371.204 169.655 369.337 169.347C367.471 169.04 365.558 169.484 364.018 170.582L341.737 186.568C340.203 187.675 339.169 189.343 338.861 191.21C338.553 193.076 338.996 194.989 340.094 196.53Z" fill="#088CFF"/>
<path d="M366.68 140.711L374.089 144.205C374.089 144.205 372.442 163.146 372.266 165.233C372.09 167.319 372.736 170.471 372.736 170.471H354.98C354.98 170.471 355.183 160.252 354 157.398C353.189 155.465 352.636 154.288 353.106 152.074C353.576 149.86 355.15 146.539 354.595 142.708L359.153 140.885L366.68 140.711Z" fill="#F74242"/>
<path d="M334.354 229.51L335.717 224.699L328.299 223.628L327.7 228.479L334.354 229.51Z" fill="#A06753"/>
<path d="M359.155 132.254V140.869C359.156 140.96 359.163 141.051 359.175 141.142C359.264 141.847 359.718 143.652 362.059 143.628C364.198 143.601 365.693 142.031 366.329 141.207C366.457 141.048 366.574 140.882 366.68 140.709L365.602 132.254H359.155Z" fill="#A06753"/>
<path d="M359.42 228.672L352.813 229.948L351.411 225.755L358.75 224.661L359.42 228.672Z" fill="#A06753"/>
<path d="M359.157 140.871L362.987 135.979L359.157 135.242V140.871Z" fill="#824C3A"/>
<path d="M358.44 136.56C359.858 137.32 362.041 137.099 363.791 135.819C365.541 134.538 369.894 129.337 365.965 125.851C362.035 122.365 358.616 126.351 358.377 127.022C358.377 127.022 357.895 129.452 357.567 131.16C357.477 131.595 357.401 131.982 357.344 132.274C357.344 132.32 357.324 132.363 357.317 132.405C357.046 133.746 357.028 135.806 358.44 136.56Z" fill="#A06753"/>
<path d="M381.483 167.552C382.492 167.064 383.268 166.197 383.642 165.14C384.015 164.083 383.956 162.921 383.478 161.907L375.933 146.107C375.444 145.098 374.578 144.322 373.52 143.948C372.463 143.575 371.301 143.633 370.287 144.112C369.278 144.6 368.502 145.467 368.128 146.524C367.755 147.581 367.813 148.743 368.292 149.757L375.837 165.557C376.325 166.566 377.192 167.342 378.249 167.716C379.307 168.09 380.469 168.031 381.483 167.552Z" fill="#F74242"/>
<path d="M341.378 184.781C343.087 185.395 344.481 186.662 345.256 188.304C346.03 189.945 346.121 191.827 345.508 193.536L336.555 225.755L325.524 224.039L332.233 190.82C332.293 189.757 332.601 188.723 333.132 187.801C333.662 186.878 334.401 186.092 335.289 185.505C336.177 184.918 337.189 184.546 338.246 184.42C339.303 184.293 340.375 184.415 341.376 184.775L341.378 184.781Z" fill="#0775EF"/>
<path d="M360.569 233.725L357.441 234.276L356.884 232.293L355.537 234.612L348.158 235.912L352.813 229.947L359.42 228.671L360.569 233.725Z" fill="#322A28"/>
<path d="M344.348 185.225C345.233 185.069 346.14 185.089 347.018 185.283C347.896 185.478 348.726 185.843 349.463 186.359C350.199 186.874 350.827 187.53 351.31 188.288C351.793 189.046 352.122 189.892 352.278 190.777L360.755 225.149L350.187 227.189L339.411 195.011C338.936 194.058 338.69 193.008 338.692 191.944C338.695 190.879 338.946 189.83 339.425 188.88C339.904 187.929 340.599 187.104 341.454 186.47C342.308 185.835 343.299 185.409 344.348 185.225Z" fill="#088CFF"/>
<path d="M354.897 230.894L351.946 231.406" stroke="#D1DDFF" stroke-width="2.08" stroke-miterlimit="10"/>
<path d="M362.983 124.438C362.983 124.438 358.932 123.842 357.717 127.608L359.742 128.076C359.742 128.076 359.945 126.747 361.079 126.352C361.079 126.352 360.174 127.233 360.242 128.266L362.568 128.926C362.568 128.926 362.93 127.508 362.906 126.919C362.906 126.919 363.242 128.337 363.109 129.121L364.693 129.878C364.693 129.878 364.441 131.217 364.958 131.809C365.474 132.4 365.892 134.695 365.892 134.695C365.892 134.695 368.476 130.265 367.984 128.618C367.492 126.972 366.58 124.296 362.983 124.438Z" fill="#322A28"/>
<path d="M354.362 232.038L351.411 232.549" stroke="#D1DDFF" stroke-width="2.08" stroke-miterlimit="10"/>
<path d="M333.79 234.59L330.653 234.085L330.778 232.029L328.745 233.779L321.345 232.59L327.7 228.479L334.354 229.51L333.79 234.59Z" fill="#322A28"/>
<path d="M329.358 230.056L326.403 229.572" stroke="#D1DDFF" stroke-width="2.08" stroke-miterlimit="10"/>
<path d="M328.479 230.963L325.524 230.477" stroke="#D1DDFF" stroke-width="2.08" stroke-miterlimit="10"/>
<path d="M358.44 174.589C358.44 174.589 346.707 182.861 344.441 184.439C342.174 186.017 338.826 187.798 338.694 191.587C338.563 195.377 342.397 203.802 342.397 203.802" stroke="#E5F0F8" stroke-width="1.04" stroke-miterlimit="10"/>
<path d="M365.035 132.984C364.63 133.729 364.547 134.24 365.132 134.555C365.468 134.72 365.853 134.748 366.209 134.635C366.565 134.522 366.863 134.276 367.042 133.948C367.447 133.202 367.3 132.342 366.714 132.024C366.129 131.706 365.44 132.238 365.035 132.984Z" fill="#A06753"/>
<path d="M366.69 132.844C366.69 132.844 365.699 132.617 365.46 133.451C365.591 133.379 365.737 133.336 365.886 133.326C366.035 133.315 366.185 133.336 366.325 133.388" stroke="#724638" stroke-width="0.52" stroke-linecap="round" stroke-linejoin="round"/>
<path d="M361.565 131.174C361.508 131.497 361.294 131.729 361.085 131.693C360.876 131.657 360.753 131.365 360.81 131.043C360.866 130.721 361.081 130.488 361.29 130.524C361.498 130.561 361.612 130.852 361.565 131.174Z" fill="#322A28"/>
<path d="M358.843 130.445C358.786 130.767 358.571 130.998 358.363 130.962C358.154 130.925 358.03 130.635 358.087 130.313C358.144 129.991 358.357 129.758 358.565 129.795C358.774 129.831 358.899 130.121 358.843 130.445Z" fill="#322A28"/>
<path d="M359.862 134.733C359.669 134.763 359.472 134.716 359.314 134.602C359.156 134.489 359.048 134.317 359.015 134.125L360.479 133.896C360.507 134.089 360.457 134.285 360.342 134.441C360.226 134.598 360.054 134.703 359.862 134.733Z" fill="white"/>
<path d="M362.404 130.654C362.404 130.654 361.895 129.737 361.089 129.897" stroke="#2C3447" stroke-width="0.77" stroke-miterlimit="10"/>
<path d="M358.97 129.379C358.97 129.379 358.515 129.209 357.925 129.633" stroke="#2C3447" stroke-width="0.77" stroke-miterlimit="10"/>
<path d="M359.809 130.66C359.809 130.66 359.493 132.252 358.523 132.281C358.69 132.486 358.897 132.656 359.13 132.781" stroke="#2C3447" stroke-width="0.77" stroke-miterlimit="10"/>
<path d="M360.729 132.839C360.753 133.161 361.253 133.386 361.849 133.344C362.444 133.301 362.906 133.005 362.884 132.683C362.861 132.361 362.359 132.138 361.764 132.181C361.168 132.224 360.706 132.519 360.729 132.839Z" fill="#A14C53"/>
<path d="M357.336 132.274C357.676 132.349 357.97 132.29 358.075 132.094C358.213 131.839 357.986 131.448 357.559 131.16C357.469 131.596 357.392 131.983 357.336 132.274Z" fill="#A14C53"/>
<path d="M350.933 162.714C351.946 160.375 351.089 157.725 349.023 156.828L330.185 151.472C329.572 151.153 328.985 150.788 328.427 150.381C327.246 149.479 323.748 147.409 323.454 147.915C323.16 148.422 325.277 150.324 324.971 150.435C324.665 150.547 322.8 149.512 322.036 149.005C321.272 148.499 319.808 147.156 319.308 147.338C318.807 147.52 318.876 148.306 318.876 148.306C318.876 148.306 318.38 147.725 318.066 148.104C317.752 148.483 318.315 149.578 318.315 149.578C318.315 149.578 318.072 149.226 317.841 149.726C317.61 150.227 318.99 151.574 318.99 151.574C318.942 151.553 318.89 151.543 318.839 151.544C318.787 151.546 318.736 151.559 318.69 151.584C318.644 151.608 318.604 151.642 318.573 151.684C318.542 151.726 318.521 151.774 318.512 151.825C318.388 152.23 320.395 153.798 322.143 154.428C323.703 154.991 327.558 155.916 328.368 156.107L345.318 165.341C347.386 166.237 349.916 165.056 350.933 162.714Z" fill="#A06753"/>
<path d="M372.617 158.815L370.103 153.555" stroke="#2C3447" stroke-width="1.07" stroke-miterlimit="10"/>
<path d="M361.565 180.452L368.205 174.578H348.565L341.261 180.452H361.565Z" fill="#89A5C7"/>
<path d="M365.883 135.422C366.165 135.224 366.232 134.835 366.033 134.553C365.835 134.271 365.445 134.204 365.164 134.403C364.882 134.602 364.815 134.991 365.014 135.272C365.212 135.554 365.602 135.621 365.883 135.422Z" stroke="white" stroke-width="0.88" stroke-miterlimit="10"/>
<path d="M341.261 180.452H361.565L356.266 165.246H335.962L341.261 180.452Z" fill="#A5BBD6"/>
<path d="M361.344 179.713L367.984 173.841H348.344L341.038 179.713H361.344Z" fill="#89A5C7"/>
<path d="M341.644 180.116H361.948L356.649 164.91H336.345L341.644 180.116Z" fill="#A5BBD6"/>
<path d="M336.345 164.91L335.962 165.246H356.266L361.565 180.452L361.948 180.116L356.649 164.91H336.345Z" fill="#89A5C7"/>
<path d="M367.984 173.841L368.205 174.578L361.565 180.452L361.308 179.713L367.984 173.841Z" fill="#586773"/>
<path d="M347.907 174.02C349.149 174.02 350.157 173.573 350.157 173.023C350.157 172.473 349.149 172.026 347.907 172.026C346.664 172.026 345.656 172.473 345.656 173.023C345.656 173.573 346.664 174.02 347.907 174.02Z" fill="#89A5C7"/>
<path d="M383.494 161.469C382.297 159.214 379.69 158.228 377.701 159.293L361.768 170.689C361.136 170.969 360.485 171.201 359.819 171.384C358.379 171.746 354.581 173.193 354.792 173.737C355.002 174.282 357.808 173.82 357.708 174.122C357.609 174.424 355.632 175.244 354.763 175.526C353.894 175.808 351.927 176.113 351.757 176.622C351.587 177.13 352.245 177.564 352.245 177.564C352.245 177.564 351.482 177.588 351.589 178.062C351.697 178.536 352.896 178.785 352.896 178.785C352.896 178.785 352.47 178.755 352.717 179.249C352.965 179.743 354.879 179.5 354.879 179.5C354.833 179.524 354.792 179.559 354.761 179.601C354.73 179.643 354.709 179.691 354.7 179.742C354.69 179.793 354.692 179.846 354.705 179.896C354.719 179.947 354.743 179.993 354.777 180.033C355.016 180.381 357.494 179.788 359.076 178.818C360.494 177.949 363.613 175.508 364.269 174.995L382.052 167.501C384.049 166.429 384.691 163.721 383.494 161.469Z" fill="#A06753"/>
<path d="M354.07 157.556C354.07 157.556 352.738 154.748 352.954 153.29C353.171 151.832 354.358 147.894 354.514 146.683" stroke="#2C3447" stroke-width="1.07" stroke-miterlimit="10"/>
<path d="M104.064 259.932C136.842 286.443 185.103 281.357 211.634 248.589C238.165 215.821 233.059 167.55 200.291 141.019C167.523 114.488 119.256 119.574 92.7328 152.362C66.21 185.15 71.2699 233.399 104.064 259.932ZM98.4632 157.017C122.464 127.356 165.988 122.764 195.63 146.763C225.272 170.762 229.887 214.249 205.904 243.912C181.884 273.589 138.397 278.185 108.737 254.184C79.0764 230.183 74.4622 186.696 98.4632 157.017Z" fill="#93ACBF"/>
<path d="M108.737 254.193C138.397 278.194 181.884 273.598 205.904 243.922C229.887 214.259 225.29 170.772 195.63 146.773C165.97 122.774 122.464 127.366 98.4632 157.026C74.4622 186.687 79.0764 230.182 108.737 254.193ZM101.392 159.376C124.079 131.334 165.226 126.997 193.268 149.69C221.31 172.382 225.651 213.506 202.977 241.55C180.264 269.61 139.141 273.959 111.097 251.256C83.0526 228.554 78.6976 187.438 101.392 159.376Z" fill="#586773"/>
<path d="M110.949 251.437C139.092 274.211 180.363 269.856 203.157 241.696C225.912 213.541 221.557 172.28 193.414 149.506C165.271 126.733 123.981 131.086 101.208 159.229C78.4343 187.372 82.8055 228.672 110.949 251.437Z" fill="white"/>
<path d="M93.2696 268.326L95.8016 270.491L107.262 256.318L104.366 254.606L93.2696 268.326Z" fill="#93ACBF"/>
<path d="M48.9764 325.957C48.9865 325.957 48.9966 325.97 49.0047 325.98C49.4088 326.308 49.8737 326.552 50.3726 326.7C50.8715 326.848 51.3948 326.896 51.9123 326.841C52.4298 326.787 52.9314 326.63 53.3883 326.381C53.8453 326.132 54.2486 325.795 54.5751 325.39L97.6854 272.103L95.8016 270.483L94.6531 269.492L93.2696 268.318L91.6654 266.946L48.4112 320.411C47.7538 321.223 47.4442 322.262 47.5501 323.301C47.656 324.34 48.1687 325.295 48.9764 325.957Z" fill="#586773"/>
<path d="M48.9764 325.958C48.9905 325.944 49.0027 325.928 49.0128 325.911L94.6531 269.501L93.2696 268.326L91.6654 266.955L48.4112 320.412C47.7538 321.224 47.4442 322.262 47.5501 323.302C47.656 324.341 48.1687 325.296 48.9764 325.958Z" fill="#93ACBF"/>
<path d="M111.753 192.108L125.122 204.385L129.969 208.842H126.088C126.377 209.814 126.721 210.769 127.119 211.702C129.117 216.453 132.344 220.586 136.467 223.678C140.591 226.77 145.463 228.709 150.583 229.296L139.929 240.9L150.36 252.256C127.119 250.714 108.071 233.866 103.183 211.702C102.98 210.76 102.794 209.804 102.638 208.842H93.539L101.972 201.094L111.753 192.108Z" fill="#088CFC"/>
<path d="M153.887 148.572C178.684 148.584 199.416 165.992 204.545 189.248C204.747 190.19 204.936 191.146 205.089 192.108H210.818L205.636 196.87L192.604 208.839L182.859 199.888L174.384 192.108H181.633C179.834 186.158 176.173 180.942 171.189 177.227C166.205 173.512 160.16 171.495 153.944 171.471L164.43 160.049L153.887 148.572Z" fill="#F9E181"/>
<path d="M143.816 141.827L150.123 148.714L160.531 160.057L149.789 171.753L143.816 178.263V173.268C142.837 173.625 141.88 174.038 140.95 174.506C136.151 176.894 132.108 180.565 129.267 185.11C126.427 189.656 124.9 194.899 124.856 200.259L111.753 188.225L102.073 197.109C103.527 174.398 119.586 155.66 140.952 150.195C141.894 149.946 142.856 149.729 143.818 149.549L143.816 141.827Z" fill="#F74242"/>
<path d="M205.764 200.636C205.683 225.966 187.461 247.021 163.405 251.496C162.457 251.67 161.501 251.818 160.539 251.946V259.114L154.349 252.371L143.816 240.902L154.298 229.482L160.533 222.69V228.708C161.503 228.484 162.46 228.205 163.399 227.874C168.578 226.064 173.139 222.826 176.556 218.534C179.973 214.242 182.105 209.07 182.707 203.617L192.614 212.718L205.764 200.636Z" fill="#6ADB6A"/>
<path d="M258.506 346.094L386.334 350.003C391.01 350.147 395.609 351.235 399.854 353.202C404.099 355.17 407.902 357.976 411.034 361.452L443.601 397.604C443.905 397.941 444.112 398.354 444.2 398.8C444.288 399.245 444.254 399.705 444.102 400.133C443.949 400.56 443.684 400.939 443.334 401.228C442.984 401.517 442.563 401.706 442.114 401.775L440.052 402.095C438.967 402.262 437.858 402.141 436.835 401.746C435.811 401.35 434.909 400.693 434.218 399.84L408.407 367.95C405.16 363.937 401.058 360.7 396.401 358.475C391.744 356.249 386.648 355.092 381.487 355.087L251.313 354.946L258.506 346.094Z" fill="#BBDBF3"/>
<path d="M432.241 346.094L304.414 350.003C299.737 350.147 295.138 351.235 290.893 353.202C286.648 355.17 282.846 357.976 279.714 361.452L247.146 397.604C246.843 397.941 246.636 398.354 246.548 398.8C246.459 399.245 246.493 399.705 246.646 400.133C246.798 400.56 247.063 400.939 247.413 401.228C247.763 401.517 248.185 401.706 248.633 401.775L250.695 402.095C251.78 402.262 252.889 402.141 253.913 401.746C254.936 401.35 255.838 400.693 256.529 399.84L282.341 367.95C285.587 363.937 289.689 360.7 294.346 358.475C299.004 356.249 304.099 355.092 309.261 355.087L439.434 354.946L432.241 346.094Z" fill="#BBDBF3"/>
<path d="M449.526 347.905C446.487 347.399 439.856 345.987 434.453 342.698C427.188 338.276 412.34 332.906 398.285 333.38C384.229 333.854 375.777 336.303 370.091 340.646C364.405 344.988 363.064 345.383 358.245 344.593C353.426 343.803 345.375 343.803 345.375 343.803C345.375 343.803 337.319 343.803 332.502 344.593C327.685 345.383 326.342 344.999 320.657 340.646C314.971 336.293 306.52 333.854 292.463 333.38C278.405 332.906 263.56 338.276 256.296 342.698C250.892 345.987 244.264 347.399 241.224 347.905C240.756 347.984 240.332 348.226 240.026 348.588C239.72 348.95 239.552 349.408 239.553 349.882V353.06C239.551 353.548 239.728 354.019 240.049 354.385C240.371 354.752 240.815 354.988 241.299 355.049C243.561 355.325 247.408 356.265 249.03 359.52C251.398 364.258 252.662 379.419 262.14 389.843C271.617 400.266 283.303 406.428 302.572 401.996C321.842 397.564 328.947 380.525 331.633 372.303C334.319 364.082 334.396 358.722 334.396 358.722C334.396 358.722 331.633 356.115 333.055 353.589C334.477 351.063 345.375 350.982 345.375 350.982C345.375 350.982 356.272 351.061 357.692 353.589C359.112 356.117 356.351 358.722 356.351 358.722C356.351 358.722 356.43 364.092 359.114 372.303C361.798 380.515 368.908 397.574 388.175 401.996C407.442 406.418 419.132 400.26 428.61 389.843C438.087 379.425 439.345 364.258 441.717 359.52C443.338 356.279 447.186 355.325 449.449 355.049C449.932 354.988 450.376 354.752 450.698 354.385C451.02 354.019 451.196 353.548 451.195 353.06V349.882C451.195 349.409 451.028 348.95 450.722 348.588C450.417 348.226 449.993 347.984 449.526 347.905Z" fill="#93ACBF"/>
<path d="M293.832 335.824C304.365 335.866 322.261 341.293 326.685 354.775C331.109 368.257 325.631 398.789 293.832 400.264C262.032 401.738 254.031 366.993 258.666 355.201C263.3 343.408 272.721 335.741 293.832 335.824Z" fill="#E5F0F8"/>
<path d="M284.559 346.888L279.161 354.962L251.315 354.935L258.502 346.094L284.559 346.888Z" fill="#BBDBF3"/>
<path d="M299.327 347.345L296.824 351.089L294.221 354.98H289.043L289.91 353.683L294.249 347.189L299.327 347.345Z" fill="#BBDBF3"/>
<path d="M249.178 399.833L252.557 402.087C251.939 402.178 251.311 402.178 250.693 402.087L248.629 401.769C248.181 401.699 247.76 401.509 247.411 401.219C247.062 400.929 246.797 400.55 246.646 400.122C246.494 399.695 246.461 399.234 246.55 398.789C246.639 398.344 246.846 397.931 247.151 397.594L260.795 382.451L249.178 399.833Z" fill="#6DA8C6"/>
<path d="M296.824 351.089L294.221 354.98L290.423 360.652C287.359 362.63 284.63 365.084 282.339 367.921L271.079 381.831L289.05 354.98L289.916 353.684C292.118 352.57 294.434 351.7 296.824 351.089Z" fill="#BBDBF3"/>
<path d="M439.434 354.936L403.195 354.972H403.176L345.375 355.045H342.8L309.263 355.082C306.148 355.081 303.048 355.504 300.048 356.342L300.952 354.991L304.278 350.022C304.323 350.017 304.368 350.017 304.413 350.022L345.265 348.772H345.375L432.237 346.104L439.434 354.936Z" fill="#BBDBF3"/>
<path d="M310.606 322.723L294.249 347.19L284.559 346.888L303.765 318.157L310.606 322.723Z" fill="white"/>
<path d="M271.06 381.876L256.01 404.398L252.557 402.087C254.118 401.861 255.536 401.057 256.531 399.833L271.06 381.876Z" fill="#F2FDFF"/>
<path d="M287.563 354.972C284.639 356.733 281.993 358.917 279.71 361.454L260.805 382.441L279.161 354.96L287.563 354.972Z" fill="white"/>
<path d="M318.287 329.053L305.931 347.546L299.327 347.346L313.638 325.938L318.287 329.053Z" fill="white"/>
<path d="M305.931 347.546L304.278 350.021L300.952 354.99L300.048 356.341C296.638 357.28 293.392 358.737 290.423 360.661L294.221 354.99L296.824 351.099L299.327 347.355L305.931 347.546Z" fill="#E5F0F8"/>
<path d="M300.048 356.342L263.699 410.728L259.041 407.613L290.421 360.67C293.39 358.743 296.637 357.284 300.048 356.342Z" fill="white"/>
<path d="M294.249 347.19L289.91 353.684L289.043 354.98L271.079 381.849L271.06 381.876L256.531 399.832C255.536 401.056 254.118 401.861 252.557 402.087L249.178 399.832L260.795 382.451L279.699 361.464C281.983 358.927 284.629 356.743 287.553 354.982H279.151L284.549 346.908L294.249 347.19Z" fill="#E5F0F8"/>
<path d="M442.11 401.769L440.056 402.087C438.971 402.254 437.861 402.133 436.838 401.738C435.814 401.342 434.911 400.685 434.22 399.832L408.411 367.939C405.163 363.927 401.061 360.69 396.403 358.465C391.745 356.24 386.649 355.084 381.487 355.081L345.375 355.045H342.8L300.952 354.99L304.278 350.021L305.931 347.546L345.265 348.761H345.375L386.336 350.011C392.282 350.193 398.081 351.901 403.176 354.972H403.195C406.107 356.741 408.747 358.925 411.032 361.454L443.601 397.604C443.903 397.941 444.109 398.354 444.196 398.799C444.283 399.244 444.248 399.703 444.095 400.13C443.943 400.557 443.677 400.934 443.328 401.222C442.979 401.511 442.558 401.699 442.11 401.769Z" fill="#BBDBF3"/>
<path d="M396.915 335.824C386.382 335.866 368.486 341.293 364.063 354.775C359.639 368.257 365.116 398.789 396.915 400.264C428.715 401.738 436.716 366.989 432.083 355.197C427.451 343.404 418.026 335.741 396.915 335.824Z" fill="#E5F0F8"/>
<path d="M245.502 353.412C246.316 353.412 246.976 352.752 246.976 351.938C246.976 351.123 246.316 350.463 245.502 350.463C244.687 350.463 244.027 351.123 244.027 351.938C244.027 352.752 244.687 353.412 245.502 353.412Z" fill="#BBDBF3"/>
<path d="M442.11 401.769L440.056 402.087C438.971 402.254 437.861 402.134 436.838 401.738C435.814 401.342 434.911 400.685 434.22 399.832L408.411 367.94C406.136 365.135 403.44 362.701 400.418 360.725L403.952 355.458C406.564 357.136 408.941 359.154 411.022 361.458L443.601 397.604C443.903 397.942 444.109 398.355 444.196 398.799C444.283 399.244 444.248 399.704 444.095 400.13C443.943 400.557 443.677 400.934 443.328 401.223C442.979 401.511 442.558 401.7 442.11 401.769Z" fill="#BBDBF3"/>
<path d="M388.848 347.427L387.085 350.04L383.751 354.998L345.375 355.045L287.563 354.972C292.661 351.9 298.464 350.192 304.414 350.011L345.375 348.762L388.848 347.427Z" fill="#BBDBF3"/>
<path d="M404.102 346.952L399.883 353.231L398.704 354.986L396.367 358.455C394.995 357.805 393.583 357.244 392.139 356.776L393.354 354.996L395.645 351.589L398.641 347.132L404.102 346.952Z" fill="#BBDBF3"/>
<path d="M439.434 354.935L404.282 354.972L409.798 346.778L432.237 346.094L439.434 354.935Z" fill="#BBDBF3"/>
<path d="M398.633 347.125L395.637 351.581L393.346 354.988L392.131 356.769C389.38 355.87 386.525 355.325 383.636 355.148L383.737 354.992L387.071 350.034L388.833 347.421L398.633 347.125Z" fill="#E5F0F8"/>
<path d="M383.644 355.154C386.533 355.331 389.388 355.876 392.139 356.775L363.579 399.215L356.991 394.768L383.644 355.154Z" fill="white"/>
<path d="M410.548 329.425L398.637 347.127L388.848 347.427L403.944 324.987L410.548 329.425Z" fill="white"/>
<path d="M404.282 354.972H403.176C403.432 355.136 403.697 355.29 403.952 355.456L400.418 360.723C399.12 359.875 397.766 359.115 396.367 358.448L398.704 354.978L399.883 353.224L404.102 346.945L409.792 346.771L404.282 354.972Z" fill="#E5F0F8"/>
<path d="M396.373 358.45C397.772 359.117 399.126 359.877 400.424 360.725L372.542 402.16L368.705 399.586L396.373 358.45Z" fill="white"/>
<path d="M403.177 354.972H404.282L403.962 355.456C403.697 355.29 403.432 355.136 403.177 354.972Z" fill="#DEECFF"/>
<path d="M419.488 332.377L409.798 346.778L404.108 346.953L415.652 329.792L419.488 332.377Z" fill="white"/>
<path d="M252.786 353.412C253.6 353.412 254.26 352.752 254.26 351.938C254.26 351.123 253.6 350.463 252.786 350.463C251.971 350.463 251.311 351.123 251.311 351.938C251.311 352.752 251.971 353.412 252.786 353.412Z" fill="#BBDBF3"/>
<path d="M445.246 353.412C446.06 353.412 446.72 352.752 446.72 351.938C446.72 351.123 446.06 350.463 445.246 350.463C444.431 350.463 443.771 351.123 443.771 351.938C443.771 352.752 444.431 353.412 445.246 353.412Z" fill="#BBDBF3"/>
<path d="M437.962 353.412C438.776 353.412 439.436 352.752 439.436 351.938C439.436 351.123 438.776 350.463 437.962 350.463C437.147 350.463 436.487 351.123 436.487 351.938C436.487 352.752 437.147 353.412 437.962 353.412Z" fill="#BBDBF3"/>
<path d="M449.621 133.646L416.264 152.903L449.621 172.162V133.646Z" fill="#088CFC"/>
<path d="M131.026 327.785L228.649 262.545L360.569 309.929L439.925 151.169" stroke="#088CFC" stroke-width="36.38" stroke-miterlimit="10"/>
<path d="M117.686 327.534C117.67 328.499 117.299 329.426 116.644 330.136C115.988 330.845 115.095 331.289 114.133 331.382C114.519 333.246 115.217 335.031 116.197 336.663C116.963 336.071 117.921 335.782 118.886 335.853C119.852 335.923 120.757 336.347 121.43 337.043C122.102 337.74 122.494 338.66 122.53 339.627C122.566 340.594 122.244 341.541 121.626 342.286C122.66 342.959 123.765 343.518 124.919 343.955C125.436 344.157 125.964 344.319 126.495 344.461C126.598 344.494 126.71 344.52 126.811 344.546C126.94 343.589 127.415 342.712 128.147 342.082C128.879 341.452 129.817 341.113 130.783 341.129C131.748 341.149 132.672 341.52 133.381 342.175C134.09 342.829 134.535 343.72 134.632 344.68C136.491 344.295 138.272 343.599 139.898 342.62C139.31 341.853 139.026 340.896 139.098 339.932C139.171 338.968 139.596 338.064 140.292 337.394C140.988 336.723 141.907 336.333 142.873 336.296C143.839 336.26 144.785 336.581 145.529 337.198C146.566 335.605 147.327 333.849 147.782 332.004C146.825 331.876 145.949 331.4 145.321 330.667C144.692 329.935 144.355 328.997 144.374 328.032C144.392 327.067 144.765 326.142 145.421 325.435C146.077 324.727 146.971 324.285 147.932 324.193C147.545 322.335 146.848 320.554 145.87 318.927C145.187 319.452 144.351 319.738 143.49 319.74C142.629 319.742 141.791 319.461 141.106 318.939C140.938 318.821 140.784 318.685 140.646 318.534C139.973 317.84 139.58 316.921 139.542 315.955C139.505 314.988 139.826 314.042 140.443 313.298C139.467 312.66 138.429 312.124 137.344 311.698C136.828 311.495 136.305 311.325 135.772 311.175C135.596 311.126 135.418 311.076 135.242 311.033C135.117 311.99 134.643 312.867 133.911 313.496C133.179 314.126 132.24 314.462 131.275 314.442C130.918 314.436 130.563 314.383 130.22 314.284C129.472 314.06 128.807 313.619 128.311 313.015C127.814 312.412 127.509 311.675 127.433 310.897C125.574 311.282 123.793 311.979 122.166 312.957C122.751 313.725 123.034 314.681 122.96 315.644C122.886 316.606 122.462 317.508 121.766 318.177C121.071 318.847 120.154 319.238 119.19 319.275C118.225 319.313 117.281 318.995 116.535 318.382C115.499 319.976 114.736 321.731 114.277 323.576C115.232 323.702 116.107 324.175 116.736 324.905C117.364 325.635 117.703 326.57 117.686 327.534ZM125.227 321.767C126.119 320.9 127.196 320.247 128.377 319.857C129.857 319.362 131.445 319.292 132.963 319.654C133.504 319.778 134.03 319.96 134.533 320.197C135.591 320.685 136.535 321.388 137.305 322.262C138.076 323.136 138.655 324.162 139.005 325.273C139.472 326.756 139.516 328.34 139.132 329.847C138.747 331.353 137.95 332.723 136.83 333.801C136.551 334.07 136.253 334.318 135.936 334.542C134.994 335.232 133.918 335.714 132.776 335.959C131.635 336.203 130.454 336.204 129.313 335.96C128.769 335.847 128.238 335.678 127.729 335.456C126.707 335.021 125.785 334.383 125.016 333.582C124.708 333.26 124.425 332.916 124.17 332.551C123.035 330.922 122.517 328.941 122.71 326.965C122.902 324.989 123.793 323.146 125.221 321.767H125.227Z" fill="#2EC6FC"/>
<path d="M126.457 333.868C127.831 334.899 129.515 335.436 131.233 335.389C132.951 335.343 134.603 334.717 135.92 333.613C136.809 332.862 137.517 331.919 137.99 330.856C138.747 329.147 138.848 327.218 138.275 325.439C137.701 323.66 136.492 322.155 134.879 321.21C133.265 320.265 131.361 319.948 129.528 320.317C127.696 320.687 126.064 321.719 124.944 323.215C124.593 323.68 124.297 324.183 124.06 324.714C123.368 326.287 123.228 328.047 123.663 329.709C124.098 331.371 125.083 332.837 126.457 333.868Z" fill="#F9ECB8"/>
<path d="M124.06 324.714L135.916 333.612C136.805 332.861 137.513 331.919 137.986 330.855L126.126 321.955C125.684 322.328 125.286 322.751 124.939 323.215C124.591 323.68 124.296 324.183 124.06 324.714Z" fill="#F9E181"/>
<path d="M221.476 273.806C222.291 274.323 222.888 275.122 223.151 276.051C223.415 276.979 223.328 277.973 222.906 278.841C224.698 279.483 226.584 279.819 228.487 279.834C228.384 278.873 228.639 277.907 229.203 277.122C229.767 276.337 230.6 275.787 231.543 275.577C232.487 275.367 233.474 275.511 234.318 275.983C235.162 276.455 235.802 277.22 236.117 278.134C237.23 277.601 238.283 276.951 239.257 276.194C239.692 275.853 240.114 275.491 240.513 275.112C240.594 275.041 240.673 274.96 240.75 274.885C239.999 274.277 239.499 273.414 239.343 272.46C239.187 271.507 239.387 270.53 239.905 269.714C240.426 268.904 241.226 268.313 242.153 268.051C243.08 267.79 244.071 267.877 244.939 268.296C245.579 266.509 245.914 264.626 245.927 262.728C244.967 262.827 244.003 262.57 243.22 262.005C242.436 261.44 241.888 260.607 241.679 259.664C241.47 258.721 241.615 257.735 242.087 256.892C242.558 256.049 243.323 255.409 244.236 255.093C243.417 253.379 242.316 251.815 240.979 250.465C240.369 251.21 239.507 251.706 238.556 251.859C237.604 252.011 236.631 251.809 235.818 251.291C235.006 250.773 234.413 249.975 234.15 249.049C233.886 248.122 233.973 247.131 234.391 246.264C232.602 245.622 230.716 245.288 228.815 245.275C228.907 246.131 228.715 246.994 228.268 247.73C227.821 248.466 227.144 249.034 226.342 249.347C226.155 249.427 225.96 249.489 225.76 249.529C224.817 249.74 223.829 249.596 222.985 249.123C222.141 248.651 221.502 247.884 221.189 246.969C220.136 247.469 219.137 248.075 218.207 248.778C217.772 249.118 217.348 249.47 216.943 249.847C216.807 249.973 216.674 250.098 216.538 250.226C217.29 250.832 217.791 251.694 217.946 252.647C218.102 253.6 217.899 254.576 217.379 255.389C217.187 255.688 216.956 255.96 216.694 256.199C216.112 256.72 215.389 257.057 214.615 257.165C213.842 257.273 213.054 257.149 212.351 256.807C211.71 258.594 211.376 260.477 211.363 262.375C212.323 262.276 213.287 262.533 214.07 263.098C214.853 263.663 215.402 264.496 215.61 265.439C215.819 266.382 215.674 267.368 215.203 268.211C214.732 269.054 213.967 269.694 213.054 270.01C213.875 271.724 214.975 273.29 216.309 274.644C216.916 273.893 217.779 273.392 218.732 273.237C219.686 273.082 220.663 273.285 221.476 273.806ZM220.488 264.364C220.213 263.151 220.217 261.891 220.5 260.68C220.853 259.159 221.625 257.766 222.728 256.661C223.116 256.264 223.546 255.91 224.01 255.606C224.978 254.957 226.071 254.517 227.219 254.316C228.366 254.114 229.543 254.155 230.675 254.435C232.183 254.81 233.557 255.598 234.642 256.712C235.727 257.825 236.48 259.219 236.816 260.737C236.901 261.115 236.958 261.499 236.984 261.885C237.082 263.049 236.933 264.22 236.546 265.322C236.16 266.424 235.545 267.432 234.742 268.28C233.593 269.497 232.107 270.343 230.474 270.711C230.038 270.806 229.596 270.867 229.151 270.895C227.166 271.016 225.203 270.425 223.615 269.227C222.027 268.03 220.918 266.306 220.488 264.364Z" fill="#2EC6FC"/>
<path d="M231.458 269.619C233.055 268.983 234.391 267.826 235.247 266.336C236.103 264.845 236.431 263.109 236.176 261.409C236.086 260.835 235.932 260.272 235.718 259.732C235.02 258.008 233.714 256.599 232.047 255.772C230.381 254.945 228.469 254.757 226.673 255.244C224.878 255.73 223.323 256.858 222.302 258.414C221.281 259.969 220.866 261.845 221.134 263.686C221.311 264.837 221.747 265.932 222.408 266.89C223.388 268.299 224.815 269.335 226.458 269.83C228.101 270.325 229.863 270.251 231.458 269.619Z" fill="#F9ECB8"/>
<path d="M222.408 266.89L236.182 261.408C236.092 260.834 235.938 260.272 235.724 259.731C235.512 259.194 235.241 258.682 234.914 258.206L221.14 263.675C221.317 264.826 221.753 265.922 222.414 266.88L222.408 266.89Z" fill="#F9E181"/>
<path d="M348.891 316.049C349.334 316.905 349.446 317.894 349.207 318.828C348.967 319.762 348.393 320.575 347.593 321.113C348.818 322.569 350.28 323.809 351.917 324.779C352.312 323.896 353.018 323.189 353.9 322.794C354.783 322.398 355.78 322.342 356.701 322.635C357.623 322.928 358.404 323.55 358.896 324.383C359.388 325.216 359.556 326.2 359.367 327.149C360.597 327.249 361.833 327.217 363.056 327.054C363.605 326.977 364.15 326.878 364.676 326.75C364.784 326.73 364.893 326.699 364.996 326.673C364.656 325.771 364.659 324.775 365.004 323.875C365.349 322.975 366.012 322.232 366.869 321.789C367.725 321.345 368.714 321.232 369.648 321.469C370.583 321.707 371.398 322.279 371.938 323.078C373.388 321.855 374.621 320.397 375.584 318.763C374.702 318.366 373.997 317.658 373.604 316.775C373.21 315.891 373.156 314.894 373.452 313.972C373.747 313.051 374.371 312.271 375.205 311.781C376.039 311.291 377.024 311.125 377.972 311.315C378.127 309.421 377.962 307.515 377.486 305.676C376.587 305.999 375.601 305.985 374.712 305.634C373.823 305.284 373.092 304.622 372.655 303.772C372.219 302.922 372.106 301.942 372.339 301.016C372.572 300.089 373.135 299.279 373.921 298.736C372.697 297.282 371.236 296.045 369.601 295.076C369.25 295.863 368.649 296.512 367.892 296.923C367.136 297.334 366.265 297.484 365.414 297.351C365.212 297.326 365.013 297.28 364.82 297.215C363.898 296.923 363.117 296.301 362.625 295.468C362.134 294.635 361.967 293.65 362.157 292.702C360.995 292.605 359.827 292.627 358.671 292.767C358.124 292.842 357.579 292.933 357.05 293.055C356.87 293.095 356.69 293.136 356.515 293.182C356.86 294.084 356.859 295.081 356.514 295.982C356.168 296.883 355.502 297.625 354.644 298.066C354.324 298.231 353.983 298.353 353.631 298.428C352.866 298.587 352.071 298.514 351.347 298.219C350.624 297.925 350.004 297.421 349.568 296.774C348.118 297.996 346.885 299.455 345.922 301.088C346.801 301.486 347.504 302.193 347.896 303.075C348.288 303.957 348.343 304.953 348.049 305.872C347.755 306.792 347.134 307.571 346.303 308.062C345.471 308.554 344.489 308.722 343.542 308.536C343.388 310.431 343.551 312.338 344.022 314.179C344.921 313.84 345.914 313.843 346.812 314.188C347.71 314.532 348.45 315.195 348.891 316.049ZM352.788 307.392C353.162 306.205 353.799 305.119 354.652 304.213C355.72 303.077 357.085 302.261 358.592 301.858C359.126 301.709 359.676 301.62 360.23 301.59C361.393 301.516 362.559 301.685 363.652 302.089C364.746 302.492 365.743 303.12 366.578 303.932C367.694 305.015 368.485 306.388 368.862 307.897C369.24 309.405 369.189 310.989 368.715 312.47C368.598 312.839 368.453 313.198 368.282 313.545C367.781 314.6 367.063 315.537 366.174 316.295C365.286 317.053 364.247 317.614 363.127 317.943C361.522 318.414 359.813 318.395 358.219 317.89C357.795 317.753 357.382 317.585 356.983 317.386C355.21 316.491 353.814 314.993 353.045 313.161C352.276 311.33 352.185 309.284 352.788 307.392Z" fill="#2EC6FC"/>
<path d="M359.625 317.452C361.324 317.707 363.06 317.379 364.55 316.522C366.04 315.665 367.197 314.33 367.832 312.733C368.043 312.191 368.193 311.627 368.28 311.052C368.502 309.563 368.279 308.042 367.637 306.681C366.995 305.32 365.964 304.179 364.674 303.404C363.384 302.629 361.893 302.253 360.39 302.325C358.887 302.397 357.439 302.913 356.228 303.808C355.018 304.703 354.101 305.936 353.592 307.352C353.083 308.769 353.005 310.304 353.369 311.765C353.732 313.225 354.52 314.545 355.634 315.557C356.748 316.57 358.136 317.229 359.625 317.452Z" fill="#F9ECB8"/>
<path d="M353.167 310.537L367.832 312.733C368.043 312.191 368.193 311.627 368.28 311.052C368.366 310.479 368.387 309.899 368.343 309.322L353.678 307.126C353.466 307.665 353.317 308.226 353.232 308.799C353.145 309.374 353.123 309.957 353.167 310.537Z" fill="#F9E181"/>
<path d="M187.05 305.169L178.334 305.021L178.789 295.867L179.008 291.49L179.02 291.273L185.84 288.405L186.063 291.498L186.227 293.753L187.05 305.169Z" fill="#FDAE97"/>
<path d="M170.002 333.499L166.338 363.842C166.168 364.949 166.267 366.08 166.627 367.141C166.986 368.201 167.596 369.159 168.404 369.934C169.212 370.709 170.195 371.277 171.269 371.592C172.343 371.907 173.478 371.958 174.576 371.742C178.364 371.007 179.814 368.08 180.495 363.731C181.801 355.38 186.369 330.323 186.369 330.323L170.002 333.499Z" fill="#088CFC"/>
<path d="M193.771 331.972L180.307 332.875L180.373 347.793L181.972 350.157L183.452 364.537L197.082 363.447L193.771 331.972Z" fill="#088CFC"/>
<path d="M158.927 325.198L158.973 325.228C159.942 325.868 161.124 326.099 162.262 325.871C163.4 325.643 164.402 324.976 165.05 324.013L175.939 307.646C176.579 306.678 176.81 305.496 176.582 304.358C176.355 303.22 175.687 302.217 174.724 301.569L174.677 301.539C173.709 300.9 172.527 300.668 171.389 300.896C170.251 301.124 169.249 301.792 168.601 302.754L157.711 319.121C157.072 320.09 156.841 321.271 157.068 322.409C157.296 323.548 157.964 324.55 158.927 325.198Z" fill="#F74242"/>
<path d="M217.99 304.644L213.366 309.171L208.695 306.328L211.699 301.646L217.79 301.843L217.99 304.644Z" fill="#E89780"/>
<path d="M200.034 326.101C202.211 327.367 204.919 326.829 206.029 324.906L211.531 314.853L213.471 311.29L215.497 307.581L212.124 305.238L209.728 303.583L209.495 303.419L207.032 307.065L204.769 310.415L198.101 320.286C196.999 322.21 197.858 324.827 200.034 326.101Z" fill="#F74242"/>
<path d="M182.804 301.341C186.002 301.412 187.366 299.822 187.777 299.198L186.58 298.657L178.68 298.252L177.728 298.558C178.121 299.309 179.537 301.27 182.804 301.341Z" fill="#FDAE97"/>
<path d="M194.155 321.24L194.344 334.319H169.723L170.017 301.345L178.465 298.292C178.558 298.464 178.668 298.646 178.787 298.835L178.82 298.875C179.278 299.459 180.153 300.012 182.606 300.066C184.649 300.113 185.644 299.829 186.219 299.459C186.475 299.283 186.69 299.055 186.849 298.788L194.826 300.548L194.297 317.189L194.155 321.24Z" fill="#F74242"/>
<path d="M163.786 394.641H176.45L180.276 365.159C180.372 364.246 180.287 363.323 180.027 362.443C179.766 361.563 179.335 360.743 178.757 360.03C177.591 358.589 175.9 357.671 174.057 357.477C172.213 357.283 170.368 357.829 168.928 358.996C167.487 360.162 166.569 361.853 166.375 363.696C166.341 364.025 166.331 364.355 166.346 364.685L164.142 390.553L163.794 394.641H163.786Z" fill="#088CFC"/>
<path d="M204.447 326.286C203.394 326.819 202.172 326.913 201.049 326.548C199.926 326.184 198.993 325.389 198.454 324.339L189.513 306.796C188.98 305.743 188.885 304.521 189.25 303.398C189.615 302.276 190.409 301.343 191.459 300.804C192.513 300.271 193.734 300.177 194.857 300.542C195.979 300.907 196.912 301.701 197.451 302.751L206.392 320.292C206.925 321.346 207.019 322.567 206.655 323.69C206.291 324.813 205.497 325.746 204.447 326.286Z" fill="#F74242"/>
<path d="M186.219 299.459L182.606 305.171L178.82 298.876C179.278 299.459 180.153 300.012 182.606 300.067C184.649 300.114 185.65 299.83 186.219 299.459Z" fill="#D6EAFF"/>
<path d="M144.344 364.318C146.22 363.238 150.624 361.28 152.971 360.133C156.378 358.462 158.426 352.031 152.716 346.979C148.08 342.877 140.875 348.539 138.229 350.465C138.137 350.532 138.026 350.57 137.912 350.575C137.798 350.579 137.685 350.55 137.588 350.491C137.49 350.432 137.412 350.345 137.363 350.242C137.314 350.139 137.297 350.023 137.314 349.91C137.516 348.452 138.377 345.669 140.998 342.914C145.801 337.864 150.188 336.924 153.609 337.341C154.342 337.425 155.08 337.429 155.813 337.354C158.672 337.051 161.372 335.893 163.561 334.03L215.689 290.514C222.669 284.047 218.878 277.715 224.695 271.899C229.011 267.583 237.146 267.893 240.567 268.217C240.68 268.227 240.787 268.273 240.872 268.348C240.957 268.423 241.016 268.523 241.041 268.633C241.066 268.744 241.054 268.86 241.009 268.964C240.963 269.067 240.886 269.154 240.788 269.211C238.912 270.291 235.665 271.421 233.316 272.574C229.907 274.245 228.349 281.549 234.059 286.601C238.694 290.701 244.912 285.728 247.558 283.804C247.65 283.737 247.76 283.699 247.875 283.694C247.989 283.689 248.102 283.719 248.199 283.778C248.297 283.837 248.375 283.924 248.424 284.027C248.472 284.13 248.49 284.246 248.473 284.359C248.271 285.817 247.46 288.29 244.841 291.043C240.039 296.093 234.944 296.601 231.523 296.184C230.073 296.006 228.511 296.35 227.16 296.824C225.347 297.478 223.666 298.452 222.197 299.7L168.429 344.587C167.286 345.532 166.383 346.734 165.795 348.095C163.794 352.784 165.457 357.243 161.173 361.525C156.856 365.841 147.982 365.637 144.563 365.313C144.45 365.302 144.344 365.256 144.259 365.181C144.174 365.106 144.116 365.006 144.091 364.895C144.067 364.785 144.078 364.669 144.124 364.565C144.169 364.462 144.247 364.375 144.344 364.318Z" fill="#93ACBF"/>
<path d="M164.744 342.434L222.793 293.976C223.192 293.641 223.443 293.162 223.49 292.643C223.537 292.124 223.377 291.608 223.044 291.207C222.709 290.808 222.229 290.558 221.71 290.511C221.191 290.464 220.674 290.625 220.273 290.958L162.224 339.416C161.825 339.75 161.574 340.23 161.527 340.749C161.481 341.268 161.642 341.784 161.975 342.185C162.31 342.584 162.789 342.834 163.308 342.881C163.827 342.927 164.343 342.767 164.744 342.434Z" fill="#586773"/>
<path d="M189.594 327.317C189.543 327.702 187.246 328.194 185.543 328.014C184.098 327.862 180.807 327.153 179.839 326.936L180.201 322.33C180.795 322.307 181.386 322.239 181.97 322.127C183.31 321.86 187.033 321.544 187.08 322.085C187.127 322.626 184.609 323.353 184.813 323.565C185.018 323.778 186.985 323.669 187.817 323.565C188.65 323.462 190.406 322.927 190.748 323.28C191.091 323.632 190.716 324.256 190.716 324.256C190.716 324.256 191.364 323.977 191.463 324.412C191.563 324.848 190.667 325.534 190.667 325.534C190.667 325.534 191.006 325.332 190.998 325.846C190.989 326.361 189.302 326.918 189.302 326.918C189.35 326.919 189.397 326.931 189.439 326.953C189.481 326.975 189.518 327.007 189.546 327.046C189.574 327.084 189.593 327.129 189.602 327.176C189.61 327.223 189.607 327.271 189.594 327.317Z" fill="#FDAE97"/>
<path d="M183.404 364.008L186.657 394.641H199.1L197.105 363.84C197.09 363.501 197.056 363.163 197.001 362.827C196.661 358.979 193.602 356.107 189.756 356.443C187.911 356.607 186.207 357.495 185.016 358.913C183.826 360.331 183.246 362.163 183.404 364.008Z" fill="#088CFC"/>
<path d="M180.953 320.853L176.549 319.966L172.561 319.168L161.922 317.029C159.721 316.735 157.642 318.531 157.304 321.029C156.966 323.527 158.501 325.811 160.703 326.109L171.809 326.919L175.844 327.221L180.015 327.529L180.953 320.853Z" fill="#F74242"/>
<path d="M186.468 297.089L181.568 293.516L186.227 293.753L186.468 297.089Z" fill="#EA9D85"/>
<path d="M185.745 283.332L187.072 288.158L187.528 289.815C187.888 291.124 188.054 293.166 186.705 294.018C185.356 294.871 183.169 294.815 181.338 293.672C179.506 292.53 174.477 286.469 178.125 282.72C181.773 278.97 185.451 282.683 185.745 283.332Z" fill="#FDAE97"/>
<path d="M178.919 293.287C178.919 293.287 181.285 289.641 179.995 287.577C178.704 285.513 179.995 284.984 180.9 285.146C181.805 285.308 183.379 285.26 184.017 285.01C184.017 285.01 182.099 285.057 181.285 284.581C181.285 284.581 185.067 284.891 185.891 283.876L186.094 284.613C186.094 284.613 187.457 281.405 185.407 280.657C183.357 279.91 182.506 280.757 182.506 280.757C182.506 280.757 183.159 279.444 182.223 279.197C181.287 278.95 180.426 280.848 180.426 280.848C180.426 280.848 179.113 279.227 177.754 280.826C176.395 282.424 176.962 283.902 176.962 283.902C176.503 284.317 176.179 284.86 176.034 285.462C175.89 286.064 175.931 286.695 176.152 287.273C176.918 289.337 178.747 291.282 178.919 293.287Z" fill="#322A28"/>
<path d="M180.029 290.654C180.76 291.315 181.052 291.841 180.533 292.415C180.229 292.723 179.818 292.903 179.384 292.917C178.951 292.93 178.529 292.777 178.206 292.487C177.475 291.829 177.303 290.829 177.821 290.259C178.34 289.69 179.3 289.998 180.029 290.654Z" fill="#FDAE97"/>
<path d="M182.839 288.08C182.922 288.384 183.148 288.586 183.345 288.532C183.541 288.477 183.633 288.189 183.547 287.885C183.462 287.582 183.238 287.379 183.041 287.434C182.845 287.488 182.755 287.776 182.839 288.08Z" fill="#332B27"/>
<path d="M186.509 287.071C186.592 287.375 186.509 287.664 186.306 287.719C186.104 287.774 185.883 287.571 185.8 287.267C185.717 286.964 185.8 286.674 186.002 286.619C186.205 286.565 186.426 286.767 186.509 287.071Z" fill="#332B27"/>
<path d="M183.955 289.929C183.936 290.233 183.432 290.454 182.826 290.419C182.221 290.385 181.745 290.114 181.761 289.812C181.777 289.51 182.281 289.289 182.887 289.322C183.493 289.354 183.971 289.625 183.955 289.929Z" fill="#E89780"/>
<path d="M187.066 288.158L187.366 289.236C186.928 289.414 186.521 289.39 186.393 289.171C186.246 288.91 186.555 288.458 187.066 288.158Z" fill="#E89780"/>
<path d="M178.757 291.726C179.04 291.588 179.347 291.504 179.66 291.479C178.992 290.774 178.374 291.047 178.374 291.047" stroke="#EA9D85" stroke-width="1.12" stroke-linecap="round" stroke-linejoin="round"/>
<path d="M184.013 291.464C184.013 291.464 184.824 292.347 186.094 291.739" stroke="#332B27" stroke-width="0.72" stroke-miterlimit="10"/>
<path d="M184.406 287.875L185.607 289.629C185.667 289.716 185.695 289.819 185.689 289.924C185.682 290.029 185.641 290.128 185.571 290.206L185.35 290.456L185.123 290.711" stroke="#332B27" stroke-width="0.72" stroke-miterlimit="10"/>
<path d="M182.223 287.585C182.223 287.585 182.695 286.775 183.511 286.763" stroke="#332B27" stroke-width="0.72" stroke-miterlimit="10"/>
<path d="M186.58 286.038C186.373 285.94 186.142 285.904 185.915 285.936C185.688 285.968 185.476 286.065 185.304 286.216" stroke="#332B27" stroke-width="0.72" stroke-miterlimit="10"/>
<path d="M186.56 298.378L182.608 300.069L184.684 302.593L187.05 298.864L186.56 298.378Z" fill="white"/>
<path d="M178.684 298.003L182.608 300.069L180.736 302.488L178.334 298.343L178.684 298.003Z" fill="white"/>
<path d="M188.451 399.427L188.119 394.641H197.441L197.803 399.427H188.451Z" fill="#FDAE97"/>
<path d="M197.605 396.81L188.119 394.641H197.441L197.605 396.81Z" fill="#EA9D85"/>
<path d="M174.615 399.427L174.973 394.633L165.423 394.641L165.263 399.427H174.615Z" fill="#FDAE97"/>
<path d="M217.725 301.015L216.37 301.049C216.188 301.057 216.013 301.123 215.871 301.237C215.729 301.351 215.627 301.507 215.58 301.683L214.729 304.531C214.685 304.667 214.671 304.81 214.69 304.951C214.708 305.092 214.758 305.227 214.836 305.347C214.914 305.466 215.018 305.566 215.139 305.64C215.261 305.714 215.398 305.759 215.539 305.773L217.01 305.824C217.208 305.826 217.401 305.76 217.556 305.637C217.711 305.513 217.818 305.34 217.861 305.147L218.596 302.214C218.762 301.606 218.31 301.001 217.725 301.015Z" fill="#FDAE97"/>
<path d="M174.773 397.307L165.423 394.641L174.973 394.633L174.773 397.307Z" fill="#EA9D85"/>
<path d="M177.258 283.767C176.894 283.6 176.489 283.543 176.093 283.604C175.697 283.664 175.328 283.839 175.03 284.107C175.03 284.107 176.93 283.562 177.258 284.287C177.586 285.013 177.258 283.767 177.258 283.767Z" fill="#322A28"/>
<path d="M177.87 299.31L182.608 306.928L187.281 299.802" stroke="white" stroke-width="0.58" stroke-linecap="round" stroke-linejoin="round"/>
<path d="M168.799 318.378L166.994 318.05" stroke="#322A28" stroke-width="0.58" stroke-linecap="round" stroke-linejoin="round"/>
<path d="M169.879 316.756L170.983 315.099" stroke="#322A28" stroke-width="0.58" stroke-linecap="round" stroke-linejoin="round"/>
<path d="M202.397 403.454H188.624L188.599 402.895L188.429 399.185H197.797C198.956 399.185 200.025 399.865 200.85 400.576C201.541 401.192 202.035 401.999 202.268 402.895C202.327 403.078 202.371 403.265 202.397 403.454Z" fill="#322A28"/>
<path d="M202.397 403.455H188.624L188.599 402.896H202.27C202.329 403.078 202.371 403.265 202.397 403.455Z" fill="#FFF1F0"/>
<path d="M198.089 399.948C198.089 399.948 196.9 397.859 196.098 398.686C195.296 399.512 198.089 399.948 198.089 399.948Z" stroke="#FFF1F0" stroke-width="0.89" stroke-linecap="round" stroke-linejoin="round"/>
<path d="M197.67 400.363L198.089 399.958C198.089 399.958 199.278 397.87 200.08 398.696C200.882 399.523 198.089 399.958 198.089 399.958" stroke="#FFF1F0" stroke-width="0.89" stroke-linecap="round" stroke-linejoin="round"/>
<path d="M198.409 400.363L198.089 399.948" stroke="#FFF1F0" stroke-width="0.89" stroke-linecap="round" stroke-linejoin="round"/>
<path d="M160.739 403.454H174.513L174.536 402.895L174.706 399.185H165.329C164.171 399.185 163.101 399.865 162.277 400.576C161.586 401.192 161.092 401.999 160.859 402.895C160.804 403.078 160.764 403.265 160.739 403.454Z" fill="#322A28"/>
<path d="M160.739 403.455H174.513L174.536 402.896H160.857C160.803 403.078 160.763 403.265 160.739 403.455Z" fill="#FFF1F0"/>
<path d="M165.048 400.074C165.048 400.074 166.239 397.985 167.039 398.812C167.839 399.638 165.048 400.074 165.048 400.074Z" stroke="#FFF1F0" stroke-width="0.89" stroke-linecap="round" stroke-linejoin="round"/>
<path d="M165.467 400.491L165.048 400.074C165.048 400.074 163.869 397.985 163.059 398.82C162.249 399.654 165.05 400.082 165.05 400.082" stroke="#FFF1F0" stroke-width="0.89" stroke-linecap="round" stroke-linejoin="round"/>
<path d="M164.73 400.491L165.048 400.073" stroke="#FFF1F0" stroke-width="0.89" stroke-linecap="round" stroke-linejoin="round"/>
<path d="M182.314 353.475L182.762 349.808L185.012 348.255L186.841 340.805" stroke="white" stroke-width="1.29" stroke-miterlimit="10"/>
<path d="M197.803 390.888H188.952" stroke="white" stroke-width="1.29" stroke-miterlimit="10"/>
<path d="M174.116 390.888H165.263" stroke="white" stroke-width="1.29" stroke-miterlimit="10"/>
</svg>
